# xmcd
#
# Track frame offsets: 
#        150
#        15513
#        33737
#        51260
#
# Disc length: 909 seconds
#
# Revision: 1
# Processed by: cddbd v1.5.2PL0 Copyright (c) Steve Scherf et al.
# Submitted via: ExactAudioCopy v1.3
#
DISCID=2c038b04
DTITLE=小田和正 - この道を／会いに行く／坂道を上って／小さな風景
DYEAR=2018
DGENRE=JPop
TTITLE0=この道を
TTITLE1=会いに行く
TTITLE2=坂道を上って
TTITLE3=小さな風景
EXTD=
EXTT0=
EXTT1=
EXTT2=
EXTT3=
PLAYORDER=
